Coordinates
version=1
nRows=9
nColumns=24
inDegrees=yes

Units are S.I. units (second, meters, Newtons, ...)
Angles are in degrees.

endheader
time	pelvis_tilt	pelvis_list	pelvis_rotation	pelvis_tx	pelvis_ty	pelvis_tz	hip_flexion_r	hip_adduction_r	hip_rotation_r	knee_angle_r	ankle_angle_r	subtalar_angle_r	mtp_angle_r	hip_flexion_l	hip_adduction_l	hip_rotation_l	knee_angle_l	ankle_angle_l	subtalar_angle_l	mtp_angle_l	lumbar_extension	lumbar_bending	lumbar_rotation
      1.02466667	     -1.49183976	     -1.33764497	     -3.69294125	     -0.02062965	      0.88183362	      0.32619650	    -17.69320035	      4.71730692	      1.72800071	     -6.91166656	     18.88996561	      6.99493507	      8.11064032	     28.40078480	     -2.84558081	     -8.64271847	     -5.23862842	      7.20161814	     -1.79350290	      1.81577858	     -5.93189261	      2.25714392	      9.30127863
      1.02883333	     -1.50236348	     -1.27162862	     -3.77805529	     -0.01480780	      0.88059586	      0.32599450	    -17.82659465	      4.56455174	      1.74355893	     -7.46142269	     19.11129847	      7.21255342	      8.29322352	     28.61392433	     -2.78380522	     -8.34930837	     -5.90898363	      7.12103530	     -1.66966635	      1.86901957	     -5.90996164	      2.10432461	      9.39281776
      1.03300000	     -1.50690878	     -1.19391929	     -3.85242398	     -0.00894879	      0.87940576	      0.32576598	    -17.95844369	      4.40078456	      1.74589058	     -8.02804065	     19.28211139	      7.41725081	      8.52113522	     28.82497328	     -2.70234203	     -8.06235208	     -6.66316349	      6.98433993	     -1.59356434	      1.94908729	     -5.88862304	      1.93719035	      9.45944787
      1.03716667	     -1.49197524	     -1.11184989	     -3.90814782	     -0.00306666	      0.87828164	      0.32551739	    -18.10204939	      4.24003194	      1.76745415	     -8.61798755	     19.42759396	      7.51256972	      8.67262545	     29.00674122	     -2.60066556	     -7.73024333	     -7.46528424	      6.83879214	     -1.56067663	      2.00754212	     -5.89679600	      1.75787332	      9.50132104
      1.04133333	     -1.49340809	     -1.01365520	     -3.95745579	      0.00286296	      0.87717650	      0.32522839	    -18.20531420	      4.05779429	      1.72553883	     -9.25164321	     19.53248316	      7.72153042	      8.87901543	     29.22096618	     -2.48037761	     -7.46682573	     -8.35829269	      6.61437925	     -1.55776505	      2.09033294	     -5.86969541	      1.56787636	      9.53727125
      1.04550000	     -1.41287842	     -0.85989927	     -4.00917877	      0.00888671	      0.87625368	      0.32489249	    -18.37262128	      3.79338075	      1.54074042	     -9.93090934	     19.59336558	      8.15091575	      9.93023639	     29.31534882	     -2.29288537	     -7.28243791	     -9.24587323	      6.29930736	     -1.59699246	      2.53951173	     -5.93507017	      1.30229737	      9.56695072
      1.04966667	     -1.43099205	     -0.77701746	     -4.01724559	      0.01486311	      0.87520511	      0.32457780	    -18.46307496	      3.65510496	      1.60116888	    -10.55818581	     19.58335054	      8.09521649	     10.09529585	     29.56662807	     -2.16517338	     -6.97903844	    -10.27064390	      6.04120463	     -1.71022214	      2.61059804	     -5.87681138	      1.12571159	      9.55733671
      1.05383333	     -1.41778238	     -0.64932730	     -4.02728172	      0.02091782	      0.87426689	      0.32421104	    -18.53922659	      3.44973621	      1.50513970	    -11.28214303	     19.55154447	      8.28229136	     10.36524302	     29.76016687	     -1.98537742	     -6.74682962	    -11.28765011	      5.68917930	     -1.85346153	      2.71967446	     -5.84770800	      0.89755504	      9.52878190
      1.05800000	     -1.34322359	     -0.49824214	     -4.02310198	      0.02704812	      0.87348921	      0.32381111	    -18.69581201	      3.21719820	      1.40457966	    -11.96475686	     19.36285608	      8.38875300	     14.08512212	     29.85914264	     -1.76141369	     -6.50744209	    -12.27657716	      5.25015206	     -2.18005536	      4.22673803	     -5.88569487	      0.62850243	      9.51048948
